<?xml version="1.0" encoding="UTF-8" standalone="no"?>
<!-- Created with Inkscape (http://www.inkscape.org/) -->

<svg
   xmlns:dc="http://purl.org/dc/elements/1.1/"
   xmlns:cc="http://creativecommons.org/ns#"
   xmlns:rdf="http://www.w3.org/1999/02/22-rdf-syntax-ns#"
   xmlns:svg="http://www.w3.org/2000/svg"
   xmlns="http://www.w3.org/2000/svg"
   xmlns:sodipodi="http://sodipodi.sourceforge.net/DTD/sodipodi-0.dtd"
   xmlns:inkscape="http://www.inkscape.org/namespaces/inkscape"
   inkscape:export-ydpi="96"
   inkscape:export-xdpi="96"
   inkscape:export-filename="C:\Users\vds19002\Downloads\Inkscape Photos (Temp)\SoS logo.png"
   sodipodi:docname="Ship Logo.svg"
   inkscape:version="0.92.4 (5da689c313, 2019-01-14)"
   id="svg8"
   version="1.1"
   viewBox="0 0 105.83333 105.83334"
   height="400"
   width="400">
  <defs
     id="defs2" />
  <sodipodi:namedview
     id="base"
     pagecolor="#ffffff"
     bordercolor="#666666"
     borderopacity="1.0"
     inkscape:pageopacity="0.0"
     inkscape:pageshadow="2"
     inkscape:zoom="0.7"
     inkscape:cx="253.34821"
     inkscape:cy="364.34986"
     inkscape:document-units="mm"
     inkscape:current-layer="layer1"
     showgrid="false"
     units="px"
     inkscape:window-width="1858"
     inkscape:window-height="1057"
     inkscape:window-x="-8"
     inkscape:window-y="-8"
     inkscape:window-maximized="1"
     inkscape:snap-nodes="false" />
  <metadata
     id="metadata5">
    <rdf:RDF>
      <cc:Work
         rdf:about="">
        <dc:format>image/svg+xml</dc:format>
        <dc:type
           rdf:resource="http://purl.org/dc/dcmitype/StillImage" />
        <dc:title></dc:title>
      </cc:Work>
    </rdf:RDF>
  </metadata>
  <g
     inkscape:label="Layer 1"
     inkscape:groupmode="layer"
     id="layer1"
     transform="translate(0,-191.16665)">
    <g
       id="g876"
       transform="translate(-13.077975,32.22247)" />
    <flowRoot
       xml:space="preserve"
       id="flowRoot938"
       style="fill:black;fill-opacity:1;stroke:none;font-family:sans-serif;font-style:normal;font-weight:normal;font-size:40px;line-height:1.25;letter-spacing:0px;word-spacing:0px"><flowRegion
         id="flowRegion940"><rect
           id="rect942"
           width="165"
           height="80.714287"
           x="75"
           y="289.28571" /></flowRegion><flowPara
         id="flowPara944" /></flowRoot>    <g
       id="g924"
       transform="matrix(1.89509,0,0,1.7981911,-48.439625,-180.91997)">
      <g
         transform="translate(24.757441,-3.2127976)"
         id="g906">
        <g
           id="g890"
           transform="translate(0.20788202)" />
      </g>
    </g>
    <path
       inkscape:connector-curvature="0"
       id="path1347"
       d="m 15.077749,264.50889 c 0.159731,-1.16234 0.638027,-2.53446 1.135892,-3.25863 0.607251,-0.88328 1.808531,-1.90302 3.013792,-2.55835 1.16994,-0.63611 1.254747,-0.92488 0.466389,-1.58798 -3.221533,-2.70966 -7.083912,-8.70553 -9.626954,-14.94467 -1.3936257,-3.41915 -3.1839528,-9.05135 -2.9491082,-9.27761 0.3960437,-0.38157 10.1498032,-0.5262 13.8801822,-0.20582 12.366083,1.06206 23.49302,3.87029 44.895782,11.33086 3.297854,1.14958 6.940484,2.41752 8.094733,2.81768 4.299872,1.49066 17.655265,5.65727 19.843239,6.19068 1.658729,0.40439 2.267987,0.61105 2.269665,0.76987 0.0018,0.17431 0.02732,0.17907 0.129262,0.0242 0.185764,-0.28236 0.321751,1.63283 0.177777,2.50375 -0.06566,0.39717 -0.135336,0.62465 -0.154848,0.50549 -0.01951,-0.11917 -0.125696,0.42133 -0.235962,1.20106 -0.389813,2.75646 -1.737094,5.62233 -3.254493,6.92279 -0.279244,0.23933 -2.352056,0.25275 -39.037263,0.25275 H 14.983475 Z M 29.14071,247.07933 c 1.751119,-0.82207 2.51535,-2.76302 1.738198,-4.41459 -0.399064,-0.84808 -0.801159,-1.24965 -1.685492,-1.68331 -1.581977,-0.77578 -3.318818,-0.53853 -4.616067,0.63055 -1.916996,1.7276 -1.362291,4.42533 1.14252,5.5565 0.778434,0.35154 2.582232,0.30453 3.420841,-0.0892 z m 57.177222,1.24446 -3.410281,-1.10498 v -3.34477 c 0,-2.91676 -0.03035,-3.35599 -0.237114,-3.43242 -0.130412,-0.0482 -2.862384,-0.0877 -6.071049,-0.0877 h -5.833935 v -0.50548 -0.50548 h 1.632889 c 1.350698,0 1.648614,-0.0395 1.723878,-0.22845 0.05005,-0.12565 0.09099,-0.84351 0.09099,-1.59527 v -1.36682 l 1.011842,0.0427 1.011842,0.0427 0.04649,0.79118 c 0.02557,0.43514 0.126756,0.84034 0.224853,0.90043 0.09809,0.06 0.730992,0.11027 1.406434,0.11152 l 1.228076,0.001 0.0461,0.6138 0.0461,0.6138 1.723878,0.0763 1.723879,0.0763 4.047365,2.44107 c 2.226052,1.34259 4.096925,2.51056 4.157498,2.59548 0.06057,0.0848 0.111167,0.52769 0.11242,0.98393 0.0022,0.80423 0.02105,0.84262 0.617115,1.25863 0.338152,0.23599 0.742888,0.46826 0.899416,0.51612 0.234438,0.0717 0.284593,0.22813 0.284593,0.8877 v 0.80067 l -1.311645,-0.0522 c -1.241682,-0.0494 -1.31954,-0.0348 -1.45962,0.27277 -0.0814,0.17873 -0.18257,0.31957 -0.224854,0.31301 -0.04229,-0.006 -1.611507,-0.5092 -3.487162,-1.11693 z M 79.7597,244.03677 c 0,-0.16632 0.191542,-0.21664 0.824464,-0.21664 0.632921,0 0.824463,0.0504 0.824463,0.21664 0,0.16631 -0.191542,0.21663 -0.824463,0.21663 -0.632922,0 -0.824464,-0.0504 -0.824464,-0.21663 z m -16.601695,-2.77545 -4.684451,-1.6698 v -2.6517 c 0,-1.94239 0.04735,-2.65168 0.17703,-2.65168 0.329335,0 9.340894,3.22451 9.451906,3.38206 0.06057,0.086 0.111167,1.30992 0.112433,2.71986 0.0017,1.96164 -0.0417,2.56089 -0.185083,2.55229 -0.103058,-0.006 -2.295381,-0.76264 -4.871829,-1.68103 z m 9.556281,0.75351 c 0,-0.16631 0.191542,-0.21664 0.824463,-0.21664 0.632921,0 0.824464,0.0504 0.824464,0.21664 0,0.1663 -0.191543,0.21664 -0.824464,0.21664 -0.632921,0 -0.824463,-0.0504 -0.824463,-0.21664 z m 3.597658,0 c 0,-0.16631 0.191543,-0.21664 0.824464,-0.21664 0.632921,0 0.824463,0.0504 0.824463,0.21664 0,0.1663 -0.191542,0.21664 -0.824463,0.21664 -0.632921,0 -0.824464,-0.0504 -0.824464,-0.21664 z m 3.33468,0.0361 c 0.03725,-0.10877 0.399543,-0.19774 0.911907,-0.22384 0.687208,-0.035 0.850096,-4.4e-4 0.850096,0.18052 0,0.17764 -0.188209,0.22384 -0.911905,0.22384 -0.662558,0 -0.895007,-0.0494 -0.850098,-0.18052 z M 51.315712,236.9168 46.63126,235.24682 v -2.71533 -2.71533 l 1.386599,0.48389 c 0.762628,0.26613 2.921223,1.02628 4.796877,1.68923 l 3.410281,1.20533 v 2.71312 c 0,1.49222 -0.0506,2.70546 -0.112432,2.69608 -0.06184,-0.009 -2.22043,-0.76851 -4.796878,-1.68701 z m 12.854135,-2.505 c -2.019936,-0.71895 -4.111075,-1.45305 -4.646976,-1.63134 l -0.974366,-0.32417 -0.04078,-2.69467 c -0.02325,-1.53619 0.01741,-2.69471 0.09458,-2.69471 0.233914,0 9.230609,3.20229 9.427537,3.35565 0.137267,0.10688 0.187377,0.8364 0.187377,2.72785 0,1.97286 -0.04421,2.58038 -0.187377,2.57526 -0.103058,-0.004 -1.840053,-0.59493 -3.859988,-1.31387 z m -25.033709,-1.6289 -4.572025,-1.62597 -0.03973,-2.29775 c -0.03376,-1.95262 -0.07747,-2.32486 -0.290979,-2.47828 -0.188479,-0.13543 -1.423843,-0.18052 -4.944529,-0.18052 -4.59334,0 -4.693276,-0.006 -4.693276,-0.28885 0,-0.2829 0.09994,-0.28885 4.843,-0.28885 h 4.842998 l 4.863183,1.71589 4.863185,1.71591 0.07495,2.68925 c 0.06493,2.32973 0.0449,2.68763 -0.149901,2.6772 -0.123671,-0.006 -2.282266,-0.74374 -4.796879,-1.63803 z m 12.23611,-3.04686 c -2.545355,-0.90503 -4.654881,-1.67149 -4.687841,-1.70322 -0.03295,-0.0317 -0.04153,-1.25795 -0.01906,-2.72487 l 0.04086,-2.66712 4.721927,1.6727 4.721926,1.6727 0.04078,2.70671 c 0.02242,1.48868 -0.0113,2.70262 -0.07495,2.69765 -0.06366,-0.005 -2.198297,-0.74953 -4.743651,-1.65455 z M 21.44765,228.80509 c 0,-2.13178 -0.02187,-2.31699 -0.28995,-2.45521 -0.178999,-0.0922 -1.813806,-0.1495 -4.27222,-0.1495 -3.882335,0 -3.98227,-0.008 -3.98227,-0.28885 0,-0.28265 0.09994,-0.28885 4.646977,-0.28885 h 4.646976 v 2.74406 2.74406 H 21.822406 21.44765 Z m 43.921416,-1.28683 c -1.27792,-0.45783 -3.385922,-1.20844 -4.684452,-1.66802 l -2.360963,-0.83561 v -2.26673 c 0,-1.57044 -0.05525,-2.31996 -0.179883,-2.44004 -0.132367,-0.12752 -1.439064,-0.17331 -4.946781,-0.17331 H 48.43009 v -0.36106 -0.36106 l 4.759403,0.009 4.759402,0.009 4.946781,1.76147 4.94678,1.76147 0.04078,2.70693 c 0.02242,1.48881 -0.0113,2.70331 -0.07495,2.6989 -0.06365,-0.005 -1.161305,-0.38261 -2.439223,-0.84045 z m -26.083025,-1.88131 -4.721928,-1.67738 -0.07495,-2.38188 -0.07495,-2.3819 -4.909305,-0.0381 -4.909305,-0.0381 v -0.3591 -0.35908 h 4.78613 4.786128 l 4.897841,1.72373 c 2.693813,0.94806 4.921922,1.74692 4.951356,1.77528 0.06826,0.0658 0.108537,5.32085 0.04118,5.3741 -0.02766,0.0219 -2.175142,-0.71507 -4.772202,-1.63762 z M 21.44765,221.73503 c 0,-1.18499 -0.04095,-2.25734 -0.09099,-2.383 -0.07996,-0.20077 -0.59777,-0.22846 -4.272221,-0.22846 h -4.181231 v -0.36105 -0.36106 h 4.646975 4.646976 v 2.74406 2.74405 h -0.37475 -0.374757 z"
       style="fill:#4dd0ff;fill-opacity:1;stroke:none;stroke-width:0.14713781;stroke-opacity:1" />
  </g>
</svg>
